<?xml version="1.0" encoding="UTF-8" standalone="no"?>
<!-- Created with Inkscape (http://www.inkscape.org/) -->
<svg xmlns:dc="http://purl.org/dc/elements/1.1/" xmlns:cc="http://creativecommons.org/ns#" xmlns:rdf="http://www.w3.org/1999/02/22-rdf-syntax-ns#" xmlns:svg="http://www.w3.org/2000/svg" xmlns="http://www.w3.org/2000/svg" xmlns:xlink="http://www.w3.org/1999/xlink" xmlns:sodipodi="http://sodipodi.sourceforge.net/DTD/sodipodi-0.dtd" xmlns:inkscape="http://www.inkscape.org/namespaces/inkscape" width="322.19077" height="251.35944" id="svg2" version="1.1" inkscape:version="0.47 r22583" sodipodi:docname="treasuremap.svg">
  <title id="title4103">treasure map</title>
  <defs id="defs4">
    <inkscape:perspective sodipodi:type="inkscape:persp3d" inkscape:vp_x="0 : 526.18109 : 1" inkscape:vp_y="0 : 1000 : 0" inkscape:vp_z="744.09448 : 526.18109 : 1" inkscape:persp3d-origin="372.04724 : 350.78739 : 1" id="perspective10"/>
    <inkscape:perspective id="perspective4135" inkscape:persp3d-origin="0.5 : 0.33333333 : 1" inkscape:vp_z="1 : 0.5 : 1" inkscape:vp_y="0 : 1000 : 0" inkscape:vp_x="0 : 0.5 : 1" sodipodi:type="inkscape:persp3d"/>
  </defs>
  <sodipodi:namedview id="base" pagecolor="#ffffff" bordercolor="#666666" borderopacity="1.0" inkscape:pageopacity="0.0" inkscape:pageshadow="2" inkscape:zoom="2.8284271" inkscape:cx="143.2021" inkscape:cy="110.9924" inkscape:document-units="px" inkscape:current-layer="layer1" showgrid="false" inkscape:window-width="1920" inkscape:window-height="1152" inkscape:window-x="0" inkscape:window-y="0" inkscape:window-maximized="1" showguides="true" inkscape:guide-bbox="true"/>
  <g inkscape:label="1. réteg" inkscape:groupmode="layer" id="layer1" transform="translate(-190.233,-423.26976)">
    <path style="fill:#000000;fill-opacity:1;stroke:#000000;stroke-width:1;stroke-linejoin:round;stroke-miterlimit:4;stroke-opacity:1;stroke-dashoffset:0" d="m 368.5625,423.8125 c -13.44601,0.45632 -26.90905,0.86431 -40.30064,2.22999 -7.50083,0.80759 -14.98273,1.85947 -22.34828,3.5131 -8.15169,1.71465 -16.22399,3.81878 -24.17987,6.28605 -3.40137,1.22622 -7.27701,2.07167 -9.65527,5.03298 -2.63585,3.12975 -3.64515,7.18893 -5.24444,10.87142 -3.57419,9.25999 -6.48292,15.64544 -7.85605,25.52412 -0.32828,0.60831 3.73033,2.69269 3.7474,4.06168 0.0172,1.38208 -4.72732,2.01321 -4.81242,2.62027 -1.14523,8.16989 -2.04648,16.37256 -3.19822,24.54189 -2.68736,20.2879 -5.20566,40.59928 -8.13263,60.85459 -1.25808,8.5744 -2.11173,18.37728 -3.37793,26.9436 -0.13808,0.93416 4.32289,0.72903 8.39327,2.5028 1.57165,0.68488 -4.33177,-1.43959 -2.22277,2.34006 -1.83147,1.64749 -6.95397,0.26299 -7.04251,0.7275 -0.64278,3.37216 -2.37516,5.4908 -3.05089,8.8562 -1.55628,7.25332 -3.04207,14.55838 -5.53994,21.55905 -0.99386,2.51001 -2.10676,5.07924 -3.97957,7.063 -1.09149,0.9712 -2.5805,1.13998 -3.98049,1.0342 -3.59311,-0.17468 -7.16062,-0.73296 -10.71273,-1.28328 -7.08753,-1.15851 -14.02798,-3.0279 -21.03727,-4.56047 -1.35425,-0.28412 -2.71403,0.58689 -3.09375,1.90625 -0.65318,1.97388 0.43817,3.89603 0.76848,5.81903 1.37999,5.49354 2.97914,10.97284 5.45027,16.08722 2.33026,3.32513 6.46447,4.7743 10.36807,5.09101 7.98608,1.32782 16.05581,2.03917 24.08915,3.011 14.12542,1.56359 28.291,2.78146 42.48394,3.52759 10.54425,0.54758 21.09586,0.94846 31.64204,1.45975 21.50424,0.94983 43.0141,1.7942 64.53046,2.41349 14.40404,0.36459 28.8216,0.44379 43.22017,-0.17073 4.54672,-0.20903 9.10769,-0.56458 13.59021,-1.3568 4.6201,-1.36147 8.29499,-4.77727 11.26951,-8.43642 4.8921,-5.95896 8.66302,-17.93133 10.88158,-25.2278 0.54382,-1.83488 -4.18715,-2.19467 -5.15025,-2.83923 -2.75391,-1.84308 6.21342,-1.7168 6.3978,-2.39738 2.53848,-9.36972 4.61751,-16.51476 6.71256,-25.99548 0.21036,-0.9519 -3.66718,-4.54356 -2.76371,-4.90963 1.92234,-0.7789 3.57342,0.40603 4.15618,-2.247 3.05759,-14.18196 7.12426,-32.02885 9.39967,-46.36214 1.28539,-8.12382 2.30347,-16.29513 2.92262,-24.49773 -2.50405,-2.25364 -2.89458,-0.68825 -6.12054,-1.4375 2.24951,-4.96638 -6.98184,-3.0666 -6.86137,-4.81681 0.0842,-1.22274 7.34131,-2.13308 7.85691,-2.26355 1.07197,-0.29024 7.15455,-1.31667 7.2202,-2.537 1.57326,-8.19567 4.19558,-16.14637 6.1583,-24.25245 1.09988,-4.75456 1.69067,-9.60606 2.0487,-14.46804 0.47884,-4.24968 0.92318,-8.6061 2.72905,-12.53715 1.42193,-1.97893 4.19939,-2.32163 6.375,-1.5625 5.09375,1.25 10.1875,2.5 15.28125,3.75 2.44598,-0.10885 4.10595,-2.3762 4.78125,-4.53125 2.03515,-7.24837 2.24764,-15.19167 -0.46862,-22.2965 -1.32808,-3.94582 -4.51925,-7.14892 -8.40638,-8.60975 -4.21833,-1.65906 -8.82392,-1.63056 -13.24347,-2.36371 -13.06964,-1.76278 -26.17472,-3.30358 -39.32447,-4.32677 -14.93114,-1.06924 -29.86413,-2.17695 -44.82827,-2.66794 -11.0499,-0.45975 -22.11035,-0.69181 -33.1692,-0.71557 -0.7907,0.0143 -1.58139,0.0285 -2.37209,0.0427 l 0,4e-5 z m 81.375,98.84375 c 0.0239,0.33178 -0.16885,-0.33257 0,0 z" id="path3982" sodipodi:nodetypes="cccccccssccsscsccccccccccccccccccssssccccscccccccccccccccccc"/>
    <path style="fill:#ac9d93;fill-opacity:1;stroke:#000000;stroke-width:1;stroke-linejoin:round;stroke-miterlimit:4;stroke-opacity:1;stroke-dasharray:none;stroke-dashoffset:0" d="M 483.9375,435.21875 457.5,458.0625 l 48.5625,8.21875 c 2.99618,-5.29275 4.15681,-15.60727 1.03125,-22.90625 l -11.625,-1.65625 9.9375,-1.3125 c -2.04935,-2.88638 -5.07669,-4.89114 -9.34375,-5.1875 l -12.125,0 z" id="path3661"/>
    <path style="fill:#f3f0ed;fill-opacity:1;stroke:#000000;stroke-width:1;stroke-linejoin:round;stroke-miterlimit:4;stroke-opacity:1;stroke-dasharray:none;stroke-dashoffset:0" d="m 369.71875,426.21875 c -17.89259,0.75981 -35.85678,1.39927 -53.55176,4.36111 -10.68371,1.68251 -21.25839,4.01305 -31.73766,6.67552 -2.85681,0.87197 -5.84801,1.43745 -8.51618,2.81879 -3.21361,2.06243 -4.65504,5.81616 -5.82752,9.2772 -1.72398,5.08586 -2.78351,10.3651 -4.30377,15.51182 -1.13562,4.2956 -2.27124,8.59121 -3.40686,12.88681 1.81336,2.50611 6.19116,2.85271 9.15625,3.71875 -0.96549,2.11287 -4.45656,1.47652 -6.59375,1.65625 0.0659,1.17408 2.6921,2.60216 3.57519,2.98017 -3.49442,1.05483 -4.99937,-0.14545 -7.07519,-0.35517 -1.09789,0.19043 -0.94154,1.5667 -1,2.40625 -1.39512,11.14565 -2.6749,22.30496 -3.8592,33.47495 -0.83375,8.12877 -1.91484,16.24214 -3.64942,24.23242 -1.7149,8.79341 -3.74209,17.57323 -4.30388,26.53794 0.32216,2.74224 3.49084,1.91265 4.9375,3.66094 -0.8578,2.13182 -3.43782,0.88149 -5.0625,2.1875 -0.49446,1.45115 -0.38458,3.03158 -0.57891,4.54134 -0.29687,4.25303 -0.83057,8.48356 -1.38984,12.70866 4.55655,0.85699 9.04212,2.04686 13.5,3.3125 -0.96113,2.179 -4.65108,1.6106 -6.96875,1.90625 1.02167,0.86491 0.20793,1.64702 2.98789,4.05238 -2.22079,0.52844 -8.68074,-0.8359 -10.92539,-0.48988 -1.02561,0.36186 -0.61827,1.69948 -1.04479,2.48974 -1.25608,12.35689 -10.36427,15.61413 0.95104,18.26026 -1.92716,0.83338 -4.1707,0.45393 -6,1.53125 -0.43724,1.09022 -0.55914,2.27798 -0.98987,3.37235 -1.35405,4.95582 -2.63125,10.21826 -6.15885,14.14272 -4.75348,5.69639 -11.10435,10.34023 -18.43782,11.96595 -0.78456,0.35708 -2.48353,0.16404 -2.72596,0.76898 0.89271,0.33827 1.89833,-0.007 2.82856,0.22241 69.54673,4.43628 139.09346,8.87256 208.64019,13.30884 5.37607,-0.15899 10.25432,-3.39098 13.41686,-7.59722 5.11094,-6.10888 8.11738,-13.66198 10.17689,-21.27778 0.22999,-0.87794 0.89981,-2.09179 -0.0763,-2.74397 -1.31446,-0.91817 -3.03077,-0.64828 -4.51595,-1.08584 -1.76247,0.14717 -4.36011,-1.26852 -4.38285,-1.28504 1.20161,-0.1673 3.00814,-1.48826 4.13135,-1.94765 -2.09021,-1.13998 -3.31857,-0.3507 -4.59375,-2.0625 3.1727,-0.38652 6.34951,0.23401 9.52555,0.23789 0.98658,0.3177 2.17832,-0.0575 1.98984,-1.30468 1.29459,-8.66042 3.68273,-17.0997 5.89086,-25.55821 -1.63513,-3.03784 -5.64507,-4.72241 -8.5625,-6.65625 3.62674,-0.53784 7.23283,0.12255 9.59375,0.90625 2.93456,-13.81595 6.27012,-27.54932 8.7981,-41.4493 1.75393,-9.22996 3.53238,-18.45554 5.17065,-27.70695 -3.62061,-0.79056 -7.38089,-0.32402 -10.96875,-1.375 -0.62723,-0.80036 7.43309,-3.00622 5.92596,-3.25728 -3.25331,-1.14852 -12.99582,-1.93945 -16.39471,-2.61772 2.4956,-1.41412 7.20173,-0.99419 10.5,-1.375 -1.48613,-1.36391 -2.13348,-1.72899 -4.84375,-3.15625 3.61523,-0.11859 5.0998,0.12582 7.09065,-0.0105 3.96347,-0.30055 6.81658,-1.76618 10.78435,-1.33325 2.87693,-15.23267 6.08442,-30.40043 9.23648,-45.57747 0.91915,-4.5212 1.45218,-9.11105 1.74312,-13.71342 0.34568,-4.33029 0.46971,-8.72226 1.31474,-12.98021 0.60968,-2.56692 1.72615,-5.04541 3.47762,-7.079 1.33194,-1.46634 2.95209,-2.76105 4.94679,-3.1499 -0.87476,-0.18093 -1.83214,-0.16384 -2.73741,-0.32957 -6.17493,-0.81338 -12.31112,-1.89901 -18.50213,-2.5964 -8.39811,-0.93499 -16.8049,-1.8024 -25.2155,-2.61824 -15.90747,-1.50854 -31.85901,-2.53792 -47.82816,-3.09101 -8.39307,-0.28823 -16.79278,-0.35121 -25.19008,-0.34621 -0.79016,0.004 -1.58031,0.008 -2.37047,0.0127 z" id="path3659" sodipodi:nodetypes="ccccsccccccccccccccccccccccccccccccccccccccccccccccccccccccccccc"/>
    <g id="g4032" transform="translate(-0.48477119,-1.5355339)">
      <path id="path3803" d="m 389.39904,501.7091 c -4.56026,0.69826 -8.55321,3.83817 -11.83038,7.48109 -1.62153,1.796 -3.26129,4.00637 -5.60586,4.33869 -2.93247,0.15743 -5.42567,-1.92278 -7.99849,-3.24796 -3.71174,-1.77548 -7.79154,-1.09117 -11.68948,-1.42338 -2.6331,-0.16151 -5.176,-1.03745 -7.70707,-1.83288 -5.19403,-1.45303 -10.80006,-1.94273 -15.90798,0.21465 -1.91678,0.9575 -3.57596,3.16919 -3.42272,5.73986 0.0317,1.79481 0.63744,3.54875 1.6272,4.90785 -0.85732,1.1111 -2.26486,1.08462 -3.2939,1.87302 -7.20298,3.60046 -14.6971,6.29185 -22.15044,9.06017 -5.36897,2.38332 -10.12274,6.60683 -13.56006,12.01193 -4.08783,5.69844 -7.82598,11.92035 -10.00718,18.97423 -0.90059,4.12275 0.60064,8.72488 3.50505,11.22103 1.80462,1.78582 4.06833,2.74934 5.98678,4.31649 0.70498,0.99342 0.21037,2.33489 -0.16418,3.35895 -0.34657,1.2555 0.0964,2.72195 1.08927,3.3681 1.95107,1.87682 4.38357,2.82189 6.66928,3.97317 6.41603,2.66067 13.60126,3.26776 20.11831,0.73914 3.29897,-1.51456 6.0729,-4.69379 7.26214,-8.64169 1.35268,-1.45414 3.48215,-0.83826 4.75776,0.43354 1.99793,1.77196 3.33992,4.43436 4.33209,7.04463 0.42154,0.94969 -0.31762,1.82411 -0.86971,2.41018 -1.03278,1.0263 -2.42639,1.18005 -3.71973,1.24214 -7.32813,1.13911 -14.37632,5.42297 -19.03676,12.24233 -0.83643,0.94849 -1.01157,2.57123 -0.30251,3.68263 0.65532,1.28695 1.89752,1.87149 3.07294,2.22467 7.64328,3.61185 14.93897,8.33894 22.92932,10.86066 4.41797,0.61115 9.00465,-0.5374 13.30063,1.17897 4.84513,1.57751 9.77583,3.47227 14.87199,3.02566 2.83701,-0.19894 5.82742,-1.84855 7.10041,-4.97931 1.12141,-3.27279 0.21894,-7.00954 -1.3438,-9.86293 -0.93542,-1.67084 -1.38746,-4.20859 -0.0922,-5.79754 1.4594,-1.91784 3.79608,-1.99252 5.81544,-2.25696 9.53172,-1.51205 18.74971,-4.9289 28.2505,-6.64305 6.11282,-1.27637 12.15684,-3.50417 17.46049,-7.37355 4.27588,-2.98377 8.2779,-6.75286 11.09031,-11.62775 1.56741,-3.0293 2.3948,-6.91985 1.23942,-10.32597 -1.13901,-3.60065 -3.7419,-6.09787 -6.08893,-8.59606 -1.20129,-1.51501 -1.57308,-3.78617 -1.04384,-5.74402 0.53007,-3.71807 0.80034,-7.48157 1.29453,-11.20341 0.43076,-2.6536 1.63038,-5.02798 3.10008,-7.06547 1.35329,-2.04914 2.67755,-4.57247 2.24441,-7.28006 -0.50727,-3.01488 -3.08748,-5.12836 -5.6424,-5.04875 -1.24919,0.0617 -2.49327,0.0136 -3.73866,-0.11404 -9.27263,-0.63465 -18.54524,-1.28832 -27.80596,-2.13377 -0.33522,-1.4607 0.82031,-2.57955 1.01735,-3.94196 0.94565,-2.59983 1.26554,-5.86056 -0.13361,-8.32356 -1.18777,-1.69808 -3.12369,-2.62154 -4.97978,-2.45969 z" style="font-size:medium;font-style:normal;font-variant:normal;font-weight:normal;font-stretch:normal;text-indent:0;text-align:start;text-decoration:none;line-height:normal;letter-spacing:normal;word-spacing:normal;text-transform:none;direction:ltr;block-progression:tb;writing-mode:lr-tb;text-anchor:start;color:#000000;fill:#000000;fill-opacity:1;stroke:none;stroke-width:5;marker:none;visibility:visible;display:inline;overflow:visible;enable-background:accumulate;font-family:Advert;-inkscape-font-specification:Advert"/>
      <path id="path3795" d="m 390.03027,507.07423 c 0.69797,1.01186 -0.0202,2.42279 -0.86972,2.92635 -2.25805,2.76257 -2.97643,7.45385 -1.03802,10.69282 1.81723,2.52801 4.84983,3.21467 7.53495,2.91593 10.198,-0.59075 20.45015,-1.25964 30.634,-0.027 1.26317,0.37953 1.35122,2.68543 0.24296,3.37608 -2.33639,1.9771 -4.68024,4.34953 -5.58095,7.68687 -0.42409,1.85887 -0.76846,3.7452 -1.20615,5.60292 -1.02069,4.72651 -1.98992,9.53331 -2.04568,14.43232 0.31586,3.19392 2.37145,5.60721 4.37465,7.55929 1.91303,1.84757 4.01603,3.95349 4.48651,6.96825 0.23868,3.12123 -1.53649,5.90139 -3.58546,7.64843 -3.37098,2.98972 -7.59182,4.02798 -11.62524,5.08774 -7.23329,2.02895 -13.77168,6.40082 -20.84491,8.99114 -4.19651,1.52674 -8.58231,2.21292 -12.96661,2.3107 -3.39266,0.13996 -6.81099,-0.0226 -10.17863,0.55144 -3.15747,0.65408 -6.3588,2.68909 -7.75743,6.23381 -1.63783,3.88982 -0.92587,8.81399 1.48297,12.04292 0.75575,1.15966 1.7614,2.11655 2.46961,3.28978 0.18835,1.34663 -1.28755,2.25359 -2.22423,1.62369 -3.86051,-0.67032 -7.43562,-2.61969 -11.14779,-3.93973 -3.53578,-1.42228 -7.39407,-2.45565 -11.09989,-1.33432 -2.51143,0.65492 -5.16337,1.71295 -7.72582,0.8004 -4.95233,-2.20184 -9.1579,-6.38956 -14.36464,-7.85647 -1.67057,-0.62015 -3.34185,-1.23761 -5.01373,-1.85291 4.51574,-5.31402 10.42594,-8.72504 16.53408,-10.70339 2.0516,-0.59532 4.39872,-0.92356 5.87174,-2.88728 1.67022,-2.31728 1.29328,-5.99782 -0.3828,-8.1779 -2.76712,-4.08239 -5.83715,-8.13489 -9.86629,-10.54314 -2.19319,-1.2303 -5.11649,-1.37657 -7.00862,0.64919 -1.87889,2.25827 -1.04909,5.97453 -2.88472,8.26816 -1.82375,2.37984 -4.69147,3.03756 -7.30276,3.03988 -4.096,0.005 -8.0987,-1.32451 -11.90589,-3.00447 -0.60753,-2.00817 0.89378,-3.99398 0.26706,-6.00516 -0.51727,-3.30524 -3.05091,-5.73973 -5.75322,-6.43699 -2.16772,-0.87623 -4.68157,-1.27523 -6.26892,-3.42213 -1.17491,-2.23209 -0.36013,-5.16619 1.10216,-6.92735 5.83377,-8.96829 13.2273,-16.47475 21.48267,-22.21029 4.21582,-3.03164 8.65128,-5.78236 13.47311,-7.19868 4.08802,-1.29897 8.27882,-2.11324 12.35639,-3.4532 2.21779,-1.03869 3.70078,-4.29825 2.65269,-6.96626 -0.62081,-1.65104 -1.763,-2.89846 -2.84033,-4.13867 -0.12315,-0.81625 0.80451,-0.8403 1.27311,-0.9085 4.7689,-1.0695 9.68292,-0.18547 14.27064,1.4965 2.04208,0.65068 4.02177,1.76814 6.18069,1.70663 2.82691,0.0555 5.77564,-0.71438 8.48874,0.57694 2.9403,1.26528 5.65037,3.47048 8.8512,3.73854 3.46706,0.37601 6.72274,-1.67124 9.38382,-4.09162 3.02791,-2.76649 5.6106,-6.42772 9.30987,-7.99988 0.24098,-0.0534 0.54526,-0.34947 0.76483,-0.13137 z" style="font-size:medium;font-style:normal;font-variant:normal;font-weight:normal;font-stretch:normal;text-indent:0;text-align:start;text-decoration:none;line-height:normal;letter-spacing:normal;word-spacing:normal;text-transform:none;direction:ltr;block-progression:tb;writing-mode:lr-tb;text-anchor:start;color:#000000;fill:#c8beb7;fill-opacity:1;stroke:none;stroke-width:5;marker:none;visibility:visible;display:inline;overflow:visible;enable-background:accumulate;font-family:Advert;-inkscape-font-specification:Advert"/>
      <path style="fill:#000000;fill-opacity:1;stroke:none" d="m 378.00566,543.08779 c 2.1784,2.99032 3.87854,6.02274 5.08112,9.10729 -2.27278,1.94928 -4.98388,3.46404 -8.27677,4.40394 l 2.94836,4.43619 c 1.79741,-2.9664 3.72264,-5.50944 5.77908,-7.5985 1.10288,3.20633 1.66813,6.46233 1.61762,9.78002 l 4.51783,-2.22233 c -2.15129,-2.48884 -3.96841,-5.23924 -5.23753,-8.43173 2.59568,-2.42377 5.3989,-4.14132 8.43317,-5.0795 l -2.94836,-4.4362 c -1.59187,3.14907 -3.50277,5.99142 -5.9303,8.31587 -1.04614,-3.05827 -1.59437,-6.50522 -1.4664,-10.4974 l -4.51782,2.22235 z" id="path3797"/>
      <path style="fill:none;stroke:#000000;stroke-width:2;stroke-miterlimit:4;stroke-dasharray:4, 4;stroke-dashoffset:0" d="m 326.09475,574.0549 c -2.56503,-14.33845 -6.89354,-23.96031 0.64126,-28.67691 7.53479,-4.7166 15.06959,-19.80971 21.80281,-18.48906 6.73322,1.32064 5.4507,16.79109 10.90141,21.69635 5.4507,4.90526 24.04722,3.58462 24.04722,3.58462" id="path3799"/>
    </g>
    <path id="path4003" style="opacity:0.3;fill:none;stroke:#000000;stroke-width:0.40000001;stroke-linejoin:round;stroke-miterlimit:4;stroke-opacity:1;stroke-dasharray:9.6, 9.6;stroke-dashoffset:0" d="m 241.71073,618.89756 c 63.16472,-0.66832 133.78944,3.99698 207.58635,0.50507 M 249.71073,578.89756 c 63.16472,-0.66832 133.78944,3.99698 207.58635,0.50507 M 257.71073,538.89756 c 63.82736,-5.30678 134.4736,-0.79216 207.58635,0.50507 M 263.71073,498.89756 c 63.82736,-5.30678 135.98883,-4.32769 209.10158,-3.03046 M 269.71073,458.89756 c 68.85541,-13.68687 138.92139,-9.21529 209.10158,-3.03046 M 285.26912,437.17928 c -12.6269,24.24366 -32.4982,179.10774 -35.35534,188.39345 -8.08121,26.26397 -26.26397,37.37565 -26.26397,37.37565 M 446.27927,432.12852 c -12.6269,24.24366 -36.53881,183.65342 -39.39595,192.93913 -8.08121,26.26397 -23.23351,37.88073 -23.23351,37.88073 m 23.13454,-234.35539 c -12.6269,24.24366 -37.04389,187.18895 -39.90103,196.47466 -8.08121,26.26397 -23.23351,37.88073 -23.23351,37.88073 M 367.7945,427.58283 c -12.6269,24.24366 -38.05404,188.19911 -40.91118,197.48482 -8.08121,26.26397 -23.23351,37.88073 -23.23351,37.88073 m -75.93908,-4.05082 c 63.16472,-0.66832 133.78944,3.99698 207.58635,0.50507 M 327.7945,429.09806 c -12.6269,24.24366 -38.05404,186.68388 -40.91118,195.96959 -8.08121,26.26397 -23.23351,37.88073 -23.23351,37.88073" sodipodi:nodetypes="cccccccccccsccsccsccsccccsc"/>
    <path style="fill:#ac9d93;fill-opacity:1;stroke:#000000;stroke-width:1;stroke-linejoin:round;stroke-miterlimit:4;stroke-opacity:1;stroke-dasharray:none;stroke-dashoffset:0" d="m 193.9375,637.5625 c -0.81151,0.86018 -0.24712,2.18713 -0.3125,3.25 0.23331,1.26335 -0.1361,2.98901 1.21875,3.71875 1.1304,0.68394 2.48794,0.72941 3.75,1 0.81744,-0.46668 1.84858,1.13431 0.65625,1.28125 -1.48192,0.23914 -3.02951,0.41204 -4.40625,1.0625 -0.91655,1.18966 0.31626,2.54459 0.20405,3.83831 -0.0183,1.16078 1.45781,1.57148 1.49747,2.65646 0.0471,1.00797 0.0537,2.1302 0.86515,2.85752 1.83038,2.47999 5.06142,3.15826 7.9601,3.40133 11.51235,1.3734 23.04102,2.61295 34.57521,3.78504 12.98303,1.20692 25.99199,2.09589 39.00113,2.96548 21.41359,1.45021 42.86864,2.14261 64.31539,2.88897 25.86457,0.68559 51.74013,0.85441 77.61275,0.73189 -3.60467,-2.43934 -5.77729,-6.44102 -7.01672,-10.52035 -0.68951,-2.11329 -1.15149,-4.28952 -1.67078,-6.4484 -1.83704,-0.93543 -3.96672,-0.41976 -5.92706,-0.80903 -8.65062,-0.72261 -17.36772,-0.7655 -26.01044,0.0903 -8.58652,0.60642 -17.19714,0.58332 -25.79981,0.61772 -4.13927,-0.003 -8.27917,0.23766 -12.41419,-0.0598 -3.82423,-0.0482 -7.61936,-0.6075 -11.41795,-1.00906 -5.90175,-0.69514 -11.82123,-1.24285 -17.76061,-1.47805 -8.61087,-0.47843 -17.22021,-0.99235 -25.82394,-1.57912 -9.7002,-0.50839 -19.41979,-0.67375 -29.10554,-1.43216 -8.3396,-0.65073 -16.57872,-2.13378 -24.85958,-3.26367 -7.62604,-1.13377 -15.29977,-1.98746 -22.85434,-3.55698 -5.24633,-1.05003 -10.48129,-2.24609 -15.56796,-3.90829 -0.209,-0.1272 -0.47625,-0.14379 -0.70858,-0.0806 z" id="path3663"/>
    <path sodipodi:type="inkscape:offset" inkscape:radius="0.96810067" inkscape:original="M 127.5625 12.75 L 122.75 24.53125 C 117.12092 25.684357 111.57112 28.825038 106.84375 33.25 L 103.53125 31.1875 L 104.75 35.375 C 100.2877 40.169414 96.770543 46.103322 94.90625 52.46875 L 84.25 56.1875 L 93.75 57.875 C 92.918601 64.136954 93.993748 69.606726 96.5625 73.6875 L 93.5 78.3125 L 97.84375 75.46875 C 97.948379 75.595402 98.079479 75.689491 98.1875 75.8125 C 98.783785 76.491358 99.398127 77.124659 100.09375 77.6875 C 100.10495 77.6966 100.1138 77.7097 100.125 77.71875 C 100.39033 77.932233 100.68967 78.147975 100.96875 78.34375 C 101.55014 78.750445 102.14255 79.1108 102.78125 79.4375 C 103.10066 79.601374 103.41683 79.763231 103.75 79.90625 C 103.759 79.90995 103.77275 79.90255 103.78125 79.90625 C 105.10662 80.472371 106.53511 80.878786 108.0625 81.09375 C 108.0726 81.09515 108.08365 81.09235 108.09375 81.09375 C 108.91224 81.207558 109.78523 81.275784 110.65625 81.28125 L 110.53125 92.5625 L 115.34375 80.78125 C 120.97273 79.627973 126.52194 76.487327 131.25 72.0625 L 134.5625 74.125 L 133.375 69.9375 C 137.82516 65.147445 141.35874 59.196655 143.21875 52.84375 L 153.84375 49.125 L 144.375 47.46875 C 144.4465 46.930018 144.488 46.370522 144.53125 45.84375 C 144.53209 45.83345 144.53042 45.82279 144.53125 45.8125 C 144.68153 43.960284 144.65136 42.181988 144.46875 40.5 C 144.46775 40.4896 144.46975 40.47914 144.46875 40.46875 C 144.42345 40.056443 144.37685 39.650766 144.3125 39.25 C 144.3105 39.23981 144.3145 39.22893 144.3125 39.21875 C 144.246 38.808175 144.17988 38.429141 144.09375 38.03125 C 143.83619 36.83842 143.48966 35.694169 143.0625 34.625 C 142.92326 34.277216 142.75021 33.927395 142.59375 33.59375 C 142.58975 33.58525 142.59775 33.57103 142.59375 33.5625 C 142.43693 33.229349 142.2674 32.912254 142.09375 32.59375 C 142.08975 32.58585 142.09775 32.57036 142.09375 32.5625 C 141.91959 32.244218 141.72187 31.95935 141.53125 31.65625 L 144.625 27.03125 L 140.25 29.875 C 137.23622 26.228095 132.82922 24.088068 127.4375 24.0625 L 127.5625 12.75 z M 127.40625 28.96875 C 127.98616 29.02149 128.54533 29.10524 129.09375 29.21875 C 129.40269 29.28256 129.70149 29.355046 130 29.4375 C 130.009 29.4401 130.02185 29.4349 130.03125 29.4375 C 130.31977 29.51786 130.59655 29.621362 130.875 29.71875 C 131.74919 30.022972 132.57468 30.380174 133.34375 30.84375 C 133.5973 30.996259 133.82101 31.174857 134.0625 31.34375 C 134.31136 31.517443 134.54552 31.684405 134.78125 31.875 C 135.01035 32.059824 135.22111 32.237196 135.4375 32.4375 C 135.448 32.4472 135.45825 32.45901 135.46875 32.46875 C 135.57662 32.569283 135.67662 32.676938 135.78125 32.78125 L 127.3125 38.3125 L 127.40625 28.96875 z M 120.65625 29.65625 L 116.6875 39.375 L 110.25 35.375 C 113.44064 32.684636 117.00841 30.675159 120.65625 29.65625 z M 138.375 36.375 C 139.83101 39.226669 140.49728 42.756896 140.21875 46.71875 L 132.40625 45.34375 L 138.375 36.375 z M 105.96875 39.6875 L 108.3125 47.8125 L 99.53125 50.84375 C 100.96561 46.775199 103.21377 42.961281 105.96875 39.6875 z M 138.5625 54.46875 C 137.12561 58.548883 134.88946 62.375544 132.125 65.65625 L 129.78125 57.53125 L 138.5625 54.46875 z M 97.875 58.59375 L 105.71875 59.96875 L 99.71875 68.96875 C 99.638241 68.811241 99.575729 68.661618 99.5 68.5 C 99.370807 68.224945 99.240093 67.942895 99.125 67.65625 C 99.1214 67.64735 99.1286 67.63394 99.125 67.625 C 99.010347 67.337993 98.881495 67.048174 98.78125 66.75 C 98.77805 66.7406 98.78435 66.72818 98.78125 66.71875 C 98.6815 66.42037 98.585045 66.121613 98.5 65.8125 C 98.4974 65.8031 98.5026 65.79066 98.5 65.78125 C 98.41276 65.462044 98.32127 65.142668 98.25 64.8125 C 97.836176 62.900376 97.715925 60.822022 97.875 58.59375 z M 121.40625 65.9375 L 127.84375 69.9375 C 124.6522 72.629373 121.08669 74.668215 117.4375 75.6875 L 121.40625 65.9375 z M 110.78125 67 L 110.6875 76.34375 C 107.31596 76.038076 104.47221 74.684169 102.3125 72.53125 L 110.78125 67 z " style="fill:#483e37;fill-opacity:1;stroke:none" id="path4101" d="M 127.4375,11.78125 A 0.96819748,0.96819748 0 0 0 126.65625,12.375 L 122,23.75 c -5.42837,1.23577 -10.69165,4.191123 -15.25,8.3125 l -2.71875,-1.6875 a 0.96819748,0.96819748 0 0 0 -1.4375,1.09375 l 1.0625,3.6875 c -4.266835,4.703427 -7.644401,10.404348 -9.53125,16.5625 l -10.1875,3.5625 a 0.96819748,0.96819748 0 0 0 0.15625,1.875 l 8.625,1.53125 c -0.598297,5.763602 0.395824,10.894816 2.71875,14.90625 l -2.75,4.1875 A 0.96819748,0.96819748 0 0 0 94.03125,79.125 L 97.75,76.6875 c 0.535032,0.592233 1.077675,1.196168 1.71875,1.71875 l 0,0.03125 c 0.0059,0.0048 0.02535,-0.0048 0.03125,0 -0.01288,-0.0086 -0.07226,-0.05239 0.03125,0.03125 0.294212,0.236721 0.58862,0.455353 0.875,0.65625 0.6144,0.429787 1.25792,0.839889 1.9375,1.1875 0.31991,0.164133 0.6588,0.308868 1.03125,0.46875 a 0.96819748,0.96819748 0 0 0 0,0.03125 c 0.14626,0.06013 0.13435,0.02625 0.21875,0.03125 1.35254,0.56032 2.79967,1.001437 4.34375,1.21875 0.27911,0.03869 0.29016,0.03589 0.0312,0 0.54961,0.07642 1.13801,0.09249 1.71875,0.125 l -0.125,10.375 a 0.96819748,0.96819748 0 0 0 1.875,0.375 l 4.65625,-11.375 c 5.42823,-1.23592 10.69115,-4.191308 15.25,-8.3125 l 2.71875,1.6875 A 0.96819748,0.96819748 0 0 0 135.5,73.875 l -1.0625,-3.71875 c 4.26274,-4.702881 7.67648,-10.407262 9.5625,-16.5625 l 10.15625,-3.5625 A 0.96819748,0.96819748 0 0 0 154,48.15625 l -8.5625,-1.5 c 0.0212,-0.242017 0.0439,-0.492642 0.0625,-0.71875 0.007,-0.08392 2.1e-4,-0.02585 0,-0.03125 8.8e-4,-0.01087 -8.7e-4,-0.02039 0,-0.03125 0.15218,-1.900719 0.1257,-3.73525 -0.0625,-5.46875 0.0167,0.173574 0.0187,0.163345 0,-0.03125 -0.0456,-0.415426 -0.0873,-0.851748 -0.15625,-1.28125 a 0.96819748,0.96819748 0 0 0 0,-0.03125 c -0.0677,-0.417725 -0.15865,-0.827988 -0.25,-1.25 -0.26841,-1.243089 -0.61397,-2.408604 -1.0625,-3.53125 a 0.96819748,0.96819748 0 0 0 0,-0.03125 c -0.15503,-0.38722 -0.35178,-0.716182 -0.5,-1.03125 0.0113,0.03211 0.0841,0.18166 0.0937,0.25 0.0107,0.07593 0.002,0.113284 0,0.15625 -0.004,0.08593 -5.1e-4,0.127878 0,0.125 9.1e-4,-0.0052 0.0278,-0.202035 -0.0937,-0.53125 -0.004,-0.0078 0.004,-0.02353 0,-0.03125 -0.008,-0.02009 0.01,-0.0099 0,-0.03125 -0.1397,-0.296778 -0.29257,-0.575215 -0.4375,-0.84375 -0.003,-0.0086 0.004,-0.01983 0,-0.03125 -0.0126,-0.0424 -0.05,-0.09656 -0.0625,-0.125 -0.003,-0.0059 4e-5,-0.03117 0,-0.03125 a 0.96819748,0.96819748 0 0 0 -0.0312,0 0.96819748,0.96819748 0 0 0 0,-0.03125 c -0.0883,-0.161424 -0.16285,-0.267931 -0.25,-0.40625 l 2.75,-4.125 a 0.96819748,0.96819748 0 0 0 -1.34375,-1.34375 L 140.375,28.625 c -2.96925,-3.23526 -7.09266,-5.17988 -11.96875,-5.4375 l 0.125,-10.4375 a 0.96819748,0.96819748 0 0 0 -1.09375,-0.96875 z m 0.9375,18.3125 c 0.17304,0.0291 0.36068,0.02719 0.53125,0.0625 0.27782,0.05738 0.54322,0.144999 0.8125,0.21875 0.01,0.0027 0.0216,-0.0027 0.0312,0 0.0199,0.0049 0.0134,-0.0035 0.0312,0 0.0179,0.0035 0.0153,-0.0024 0.0312,0 0.22863,0.06528 0.46907,0.151745 0.75,0.25 0.8307,0.289087 1.58619,0.643533 2.28125,1.0625 0.18301,0.110081 0.3822,0.245834 0.65625,0.4375 0.24381,0.170171 0.48056,0.332684 0.6875,0.5 0.0121,0.0098 0.0193,0.02154 0.0312,0.03125 L 128.3125,36.5 128.375,30.09375 z m -9.5,1.34375 -2.65625,6.53125 L 112,35.34375 c 2.18552,-1.687816 4.49393,-2.98307 6.875,-3.90625 z m 19.21875,7.125 c 0.75315,2.048779 1.14831,4.369191 1.09375,6.96875 l -5.15625,-0.90625 4.0625,-6.0625 z m -32.5,3.34375 1.53125,5.3125 -5.78125,1.96875 c 1.11542,-2.596146 2.55271,-5.031088 4.25,-7.28125 z M 136.75,56.125 c -1.11543,2.608178 -2.54906,5.05512 -4.25,7.3125 l -1.53125,-5.3125 5.78125,-2 z m -37.84375,3.65625 5.1875,0.90625 -4.1875,6.25 c -0.06904,-0.168545 -0.170379,-0.356124 -0.21875,-0.5 -0.0053,-0.01884 0.0067,-0.01099 0,-0.03125 -0.09764,-0.292068 -0.172297,-0.561322 -0.25,-0.84375 -0.0046,-0.02021 0.0062,-0.0089 0,-0.03125 -0.08933,-0.326835 -0.187617,-0.6485 -0.25,-0.9375 -0.317208,-1.465699 -0.322326,-3.120089 -0.28125,-4.8125 z m 22.96875,7.5625 4.21875,2.625 c -2.18838,1.695034 -4.49421,3.008023 -6.875,3.9375 l 2.65625,-6.5625 z m -12.09375,1.46875 -0.0625,6.28125 c -2.20373,-0.378229 -4.09822,-1.244584 -5.6875,-2.53125 l 5.75,-3.75 z" transform="translate(190.233,423.26976)"/>
    <g transform="matrix(0.48565837,-0.04935455,-0.11888787,0.55702993,321.85681,119.12465)" id="g4086" style="stroke-width:1.55505942000000008;stroke-miterlimit:4;stroke-dasharray:none;stroke:none">
      <g transform="matrix(0.3012644,0,0,0.3012644,86.263628,576.81604)" style="stroke:none;stroke-width:5.16177624999999995;stroke-miterlimit:4;stroke-dasharray:none" id="g5159">
        <path style="fill:#f3f0ed;fill-opacity:1;stroke:none;stroke-width:5.16177624999999995;stroke-linejoin:round;stroke-miterlimit:4;stroke-opacity:1;stroke-dasharray:none" d="m 157.84375,81.09375 c -93.796231,0 -169.8125,76.04752 -169.8125,169.84375 0,93.79623 76.016269,169.84375 169.8125,169.84375 93.79623,0 169.84375,-76.04752 169.84375,-169.84375 0,-93.79623 -76.04752,-169.84375 -169.84375,-169.84375 z m 0,28.78125 c 77.89631,0 141.0625,63.16619 141.0625,141.0625 0,77.89631 -63.16619,141.03125 -141.0625,141.03125 -77.896313,0 -141.03125,-63.13494 -141.03125,-141.03125 0,-77.89631 63.134937,-141.0625 141.03125,-141.0625 z" id="path5127"/>
        <path style="fill:#917c6f;fill-opacity:1;stroke:none;stroke-width:5.16177624999999995;stroke-linejoin:round;stroke-miterlimit:4;stroke-opacity:1;stroke-dasharray:none" d="m 277.84375,130.75 -9.65625,9.65625 c 28.33017,28.27451 45.875,67.34332 45.875,110.53125 0,86.26469 -69.95406,156.1875 -156.21875,156.1875 -43.17991,0 -82.257972,-17.52285 -110.53125,-45.84375 l -9.625,9.625 c 30.742283,30.79758 73.2029,49.875 120.15625,49.875 93.79623,0 169.84375,-76.04752 169.84375,-169.84375 0,-46.9459 -19.05478,-89.44636 -49.84375,-120.1875 z" id="path5140"/>
        <path style="fill:#917c6f;fill-opacity:1;stroke:none;stroke-width:5.16177624999999995;stroke-linejoin:round;stroke-miterlimit:4;stroke-opacity:1;stroke-dasharray:none" d="m 47.52678,361.46098 10.6875,-10.6875 C 32.63524,325.24221 16.80803,289.9256 16.80803,250.92973 c 0,-77.89631 63.16619,-141.03125 141.0625,-141.03125 38.99589,0 74.28123,15.82719 99.8125,41.40625 l 10.71875,-10.71875 C 240.1285,112.26508 201.05044,94.742226 157.87053,94.742226 c -86.26469,0 -156.21875,69.922814 -156.21875,156.187504 0,43.18793 17.54483,82.25674 45.875,110.53125 z" id="path5153" inkscape:transform-center-x="22.83036" inkscape:transform-center-y="-22.83201"/>
      </g>
      <g inkscape:transform-center-x="-17.335456" style="stroke:none;stroke-width:4.02301201000000042;stroke-miterlimit:4;stroke-dasharray:none" inkscape:transform-center-y="-17.337051" transform="matrix(0.4260522,0.4260522,-0.17534707,0.17534707,111.15051,540.56513)" id="g5172">
        <path inkscape:transform-center-y="-126.944" transform="matrix(0.20207547,0,0,1,124.9611,-9.9904946)" d="m 290.86782,244.84061 -256.021348,0 L 162.85715,23.119614 290.86782,244.84061 z" inkscape:randomized="0" inkscape:rounded="0" inkscape:flatsided="true" sodipodi:arg2="1.5707963" sodipodi:arg1="0.52359878" sodipodi:r2="73.907005" sodipodi:r1="147.814" sodipodi:cy="170.93361" sodipodi:cx="162.85715" sodipodi:sides="3" id="path5174" style="fill:#f3f0ed;fill-opacity:1;stroke:none;stroke-width:8.94941258000000062;stroke-miterlimit:4;stroke-dasharray:none" sodipodi:type="star"/>
        <path inkscape:transform-center-y="-126.93081" inkscape:transform-center-x="-12.924105" id="path5176" d="m 157.85714,13.143434 0,221.718746 25.875,0 -25.875,-221.718746 z" style="fill:#917c6f;fill-opacity:1;stroke:none;stroke-width:4.02301201000000042;stroke-miterlimit:4;stroke-dasharray:none"/>
      </g>
      <g inkscape:transform-center-x="17.337057" style="stroke:none;stroke-width:4.02301201000000042;stroke-miterlimit:4;stroke-dasharray:none" id="g5178" transform="matrix(0.4260522,0.4260522,0.17534707,-0.17534707,21.976118,629.73951)" inkscape:transform-center-y="17.335459">
        <path sodipodi:type="star" style="fill:#f3f0ed;fill-opacity:1;stroke:none;stroke-width:8.94941258000000062;stroke-miterlimit:4;stroke-dasharray:none" id="path5180" sodipodi:sides="3" sodipodi:cx="162.85715" sodipodi:cy="170.93361" sodipodi:r1="147.814" sodipodi:r2="73.907005" sodipodi:arg1="0.52359878" sodipodi:arg2="1.5707963" inkscape:flatsided="true" inkscape:rounded="0" inkscape:randomized="0" d="m 290.86782,244.84061 -256.021348,0 L 162.85715,23.119614 290.86782,244.84061 z" transform="matrix(0.20207547,0,0,1,124.9611,-9.9904946)" inkscape:transform-center-y="-126.944"/>
        <path style="fill:#917c6f;fill-opacity:1;stroke:none;stroke-width:4.02301201000000042;stroke-miterlimit:4;stroke-dasharray:none" d="m 157.85714,13.143434 0,221.718746 25.875,0 -25.875,-221.718746 z" id="path5182" inkscape:transform-center-x="-12.924105" inkscape:transform-center-y="-126.93081"/>
      </g>
      <g inkscape:transform-center-y="17.337047" style="stroke:none;stroke-width:4.02301201000000042;stroke-miterlimit:4;stroke-dasharray:none" transform="matrix(0.4260522,-0.4260522,-0.17534707,-0.17534707,111.1505,764.26168)" id="g5184" inkscape:transform-center-x="-17.335451">
        <path inkscape:transform-center-y="-126.944" transform="matrix(0.20207547,0,0,1,124.9611,-9.9904946)" d="m 290.86782,244.84061 -256.021348,0 L 162.85715,23.119614 290.86782,244.84061 z" inkscape:randomized="0" inkscape:rounded="0" inkscape:flatsided="true" sodipodi:arg2="1.5707963" sodipodi:arg1="0.52359878" sodipodi:r2="73.907005" sodipodi:r1="147.814" sodipodi:cy="170.93361" sodipodi:cx="162.85715" sodipodi:sides="3" id="path5186" style="fill:#f3f0ed;fill-opacity:1;stroke:none;stroke-width:8.94941258000000062;stroke-miterlimit:4;stroke-dasharray:none" sodipodi:type="star"/>
        <path inkscape:transform-center-y="-126.93081" inkscape:transform-center-x="-12.924105" id="path5188" d="m 157.85714,13.143434 0,221.718746 25.875,0 -25.875,-221.718746 z" style="fill:#917c6f;fill-opacity:1;stroke:none;stroke-width:4.02301201000000042;stroke-miterlimit:4;stroke-dasharray:none"/>
      </g>
      <g transform="matrix(1,0,0,2,0,-652.4134)" id="g4078" style="stroke-width:1.09959305999999990;stroke-miterlimit:4;stroke-dasharray:none;stroke:none">
        <path transform="matrix(0,0.06087814,-0.3012644,0,212.43155,642.49896)" d="m 290.86782,244.84061 -256.021348,0 L 162.85715,23.119614 290.86782,244.84061 z" inkscape:randomized="0" inkscape:rounded="0" inkscape:flatsided="true" sodipodi:arg2="1.5707963" sodipodi:arg1="0.52359878" sodipodi:r2="73.907005" sodipodi:r1="147.814" sodipodi:cy="170.93361" sodipodi:cx="162.85715" sodipodi:sides="3" id="path5060" style="fill:#f3f0ed;fill-opacity:1;stroke:none;stroke-width:8.11946466999999927;stroke-miterlimit:4;stroke-dasharray:none" sodipodi:type="star" inkscape:transform-center-x="-38.243706"/>
        <path inkscape:transform-center-y="3.893573" inkscape:transform-center-x="-38.239735" id="path5062" d="m 205.46212,652.40937 -66.79597,0 0,7.79522 66.79597,-7.79522 z" style="fill:#917c6f;fill-opacity:1;stroke:none;stroke-width:1.09959305999999990;stroke-miterlimit:4;stroke-dasharray:none"/>
      </g>
      <g transform="matrix(2,0,0,1,-133.8244,0)" id="g4074" style="stroke-width:1.09959305999999990;stroke-miterlimit:4;stroke-dasharray:none;stroke:none">
        <path inkscape:transform-center-y="38.243708" transform="matrix(0.06087814,0,0,-0.3012644,123.90996,731.02055)" d="m 290.86782,244.84061 -256.021348,0 L 162.85715,23.119614 290.86782,244.84061 z" inkscape:randomized="0" inkscape:rounded="0" inkscape:flatsided="true" sodipodi:arg2="1.5707963" sodipodi:arg1="0.52359878" sodipodi:r2="73.907005" sodipodi:r1="147.814" sodipodi:cy="170.93361" sodipodi:cx="162.85715" sodipodi:sides="3" id="path5068" style="fill:#f3f0ed;fill-opacity:1;stroke:none;stroke-width:8.11946466999999927;stroke-miterlimit:4;stroke-dasharray:none" sodipodi:type="star"/>
        <path inkscape:transform-center-y="38.239735" inkscape:transform-center-x="-3.8935732" id="path5070" d="m 133.82036,724.05112 0,-66.79596 7.79522,0 -7.79522,66.79596 z" style="fill:#917c6f;fill-opacity:1;stroke:none;stroke-width:1.09959305999999990;stroke-miterlimit:4;stroke-dasharray:none"/>
      </g>
      <g inkscape:transform-center-y="-17.335459" style="stroke:none;stroke-width:4.02301201000000042;stroke-miterlimit:4;stroke-dasharray:none" id="g5190" transform="matrix(0.4260522,-0.4260522,0.17534707,0.17534707,21.976123,675.0873)" inkscape:transform-center-x="17.337053">
        <path sodipodi:type="star" style="fill:#f3f0ed;fill-opacity:1;stroke:none;stroke-width:8.94941258000000062;stroke-miterlimit:4;stroke-dasharray:none" id="path5192" sodipodi:sides="3" sodipodi:cx="162.85715" sodipodi:cy="170.93361" sodipodi:r1="147.814" sodipodi:r2="73.907005" sodipodi:arg1="0.52359878" sodipodi:arg2="1.5707963" inkscape:flatsided="true" inkscape:rounded="0" inkscape:randomized="0" d="m 290.86782,244.84061 -256.021348,0 L 162.85715,23.119614 290.86782,244.84061 z" transform="matrix(0.20207547,0,0,1,124.9611,-9.9904946)" inkscape:transform-center-y="-126.944"/>
        <path style="fill:#917c6f;fill-opacity:1;stroke:none;stroke-width:4.02301201000000042;stroke-miterlimit:4;stroke-dasharray:none" d="m 157.85714,13.143434 0,221.718746 25.875,0 -25.875,-221.718746 z" id="path5194" inkscape:transform-center-x="-12.924105" inkscape:transform-center-y="-126.93081"/>
      </g>
      <g transform="matrix(0.6025288,0,0,0.3012644,38.702856,576.81604)" style="stroke:none;stroke-width:3.64992698999999998;stroke-miterlimit:4;stroke-dasharray:none" id="g5168">
        <path sodipodi:type="star" style="fill:#f3f0ed;fill-opacity:1;stroke:none;stroke-width:8.11946432999999956;stroke-miterlimit:4;stroke-dasharray:none" id="path2816" sodipodi:sides="3" sodipodi:cx="162.85715" sodipodi:cy="170.93361" sodipodi:r1="147.814" sodipodi:r2="73.907005" sodipodi:arg1="0.52359878" sodipodi:arg2="1.5707963" inkscape:flatsided="true" inkscape:rounded="0" inkscape:randomized="0" d="m 290.86782,244.84061 -256.021348,0 L 162.85715,23.119614 290.86782,244.84061 z" transform="matrix(0.20207547,0,0,1,124.9611,-9.9904946)" inkscape:transform-center-y="-126.944"/>
        <path style="fill:#917c6f;fill-opacity:1;stroke:none;stroke-width:3.64992698999999998;stroke-miterlimit:4;stroke-dasharray:none" d="m 157.85714,13.143434 0,221.718746 25.875,0 -25.875,-221.718746 z" id="path3613" inkscape:transform-center-x="-12.924105" inkscape:transform-center-y="-126.93081"/>
      </g>
      <g transform="matrix(1,0,0,2,0,-652.4134)" id="g4082" style="stroke-width:1.09959305999999990;stroke-miterlimit:4;stroke-dasharray:none;stroke:none">
        <path sodipodi:type="star" style="fill:#f3f0ed;fill-opacity:1;stroke:none;stroke-width:8.11946466999999927;stroke-miterlimit:4;stroke-dasharray:none" id="path5074" sodipodi:sides="3" sodipodi:cx="162.85715" sodipodi:cy="170.93361" sodipodi:r1="147.814" sodipodi:r2="73.907005" sodipodi:arg1="0.52359878" sodipodi:arg2="1.5707963" inkscape:flatsided="true" inkscape:rounded="0" inkscape:randomized="0" d="m 290.86782,244.84061 -256.021348,0 L 162.85715,23.119614 290.86782,244.84061 z" transform="matrix(0,0.06087814,0.3012644,0,55.217254,642.49896)" inkscape:transform-center-x="38.243707"/>
        <path style="fill:#917c6f;fill-opacity:1;stroke:none;stroke-width:1.09959305999999990;stroke-miterlimit:4;stroke-dasharray:none" d="m 62.186683,652.40937 66.795967,0 0,7.79522 -66.795967,-7.79522 z" id="path5076" inkscape:transform-center-x="38.239734" inkscape:transform-center-y="3.8935736"/>
      </g>
      <g transform="matrix(0.41931996,0,0,0.41931996,67.627715,547.19193)" style="stroke:none;stroke-width:3.70852707000000015;stroke-miterlimit:4;stroke-dasharray:none" id="g5122">
        <rect style="fill:#f3f0ed;fill-opacity:1;stroke:none;stroke-width:3.70852707000000015;stroke-linejoin:round;stroke-miterlimit:4;stroke-opacity:1;stroke-dasharray:none" id="rect5084" width="102.85714" height="102.85714" x="106.42857" y="199.50505"/>
        <path style="fill:#917c6f;fill-opacity:1;stroke:none;stroke-width:3.70852707000000015;stroke-linejoin:round;stroke-miterlimit:4;stroke-opacity:1;stroke-dasharray:none" d="m 209.28571,199.50505 0,102.85714 -102.85714,0 102.85714,-102.85714 z" id="rect5088" sodipodi:nodetypes="cccc"/>
        <rect y="210.93362" x="117.85715" height="80" width="80" id="rect5086" style="fill:#917c6f;fill-opacity:1;stroke:none;stroke-width:3.70852707000000015;stroke-linejoin:round;stroke-miterlimit:4;stroke-opacity:1;stroke-dasharray:none"/>
      </g>
      <g transform="matrix(0.3700109,0,0,0.37001089,75.411503,559.56523)" style="stroke:none;stroke-width:4.20273955000000043;stroke-miterlimit:4;stroke-dasharray:none" id="g5097">
        <rect y="237.63016" x="-117.24358" height="102.85714" width="102.85714" id="rect5091" style="fill:#f3f0ed;fill-opacity:1;stroke:none;stroke-width:4.20273956000000037;stroke-linejoin:round;stroke-miterlimit:4;stroke-opacity:1;stroke-dasharray:none" transform="matrix(0.70710678,-0.70710678,0.70710678,0.70710678,0,0)"/>
        <path sodipodi:nodetypes="cccc" id="path5093" d="m 157.85714,178.20264 72.73098,72.73098 -72.73098,72.73098 0,-145.46196 z" style="fill:#917c6f;fill-opacity:1;stroke:none;stroke-width:4.20273955000000043;stroke-linejoin:round;stroke-miterlimit:4;stroke-opacity:1;stroke-dasharray:none"/>
        <rect style="fill:#917c6f;fill-opacity:1;stroke:none;stroke-width:4.20273956000000037;stroke-linejoin:round;stroke-miterlimit:4;stroke-opacity:1;stroke-dasharray:none" id="rect5095" width="80" height="80" x="-105.815" y="249.05873" transform="matrix(0.70710678,-0.70710678,0.70710678,0.70710678,0,0)"/>
      </g>
      <path transform="matrix(0.38238911,0,0,0.38238901,73.47917,556.50989)" sodipodi:open="true" sodipodi:end="6.2335773" sodipodi:start="0" d="m 188.39345,250.30106 c 0,17.0157 -13.79395,30.80965 -30.80965,30.80965 -17.0157,0 -30.80965,-13.79395 -30.80965,-30.80965 0,-17.01571 13.79395,-30.80966 30.80965,-30.80966 16.42184,0 29.95743,12.88024 30.77175,29.28188" sodipodi:ry="30.809652" sodipodi:rx="30.809652" sodipodi:cy="250.30106" sodipodi:cx="157.5838" id="path5109" style="fill:#f3f0ed;fill-opacity:1;stroke:none;stroke-width:4.06669432999999980;stroke-linejoin:round;stroke-miterlimit:4;stroke-opacity:1;stroke-dasharray:none" sodipodi:type="arc"/>
      <path style="fill:#917c6f;fill-opacity:1;stroke:none;stroke-width:1.55505942000000008;stroke-linejoin:round;stroke-miterlimit:4;stroke-opacity:1;stroke-dasharray:none" d="m 142.23751,644.065 -16.64587,16.65782 c 2.11652,2.02962 4.98571,3.28616 8.14966,3.28616 6.50663,0 11.78237,-5.27574 11.78237,-11.78235 l -0.0239,-0.58555 c -0.14625,-2.94585 -1.35934,-5.5952 -3.26226,-7.57608 z" id="path5115"/>
      <path transform="matrix(0.27582164,0,0,0.27582157,90.272475,583.18383)" sodipodi:type="arc" style="fill:#917c6f;fill-opacity:1;stroke:none;stroke-width:5.63791739000000014;stroke-linejoin:round;stroke-miterlimit:4;stroke-opacity:1;stroke-dasharray:none" id="path5111" sodipodi:cx="157.5838" sodipodi:cy="250.30106" sodipodi:rx="30.809652" sodipodi:ry="30.809652" d="m 188.39345,250.30106 c 0,17.0157 -13.79395,30.80965 -30.80965,30.80965 -17.0157,0 -30.80965,-13.79395 -30.80965,-30.80965 0,-17.01571 13.79395,-30.80966 30.80965,-30.80966 16.42184,0 29.95743,12.88024 30.77175,29.28188" sodipodi:start="0" sodipodi:end="6.2335773" sodipodi:open="true"/>
    </g>
    <path style="font-size:medium;font-style:normal;font-variant:normal;font-weight:normal;font-stretch:normal;text-indent:0;text-align:start;text-decoration:none;line-height:normal;letter-spacing:normal;word-spacing:normal;text-transform:none;direction:ltr;block-progression:tb;writing-mode:lr-tb;text-anchor:start;color:#000000;fill:#483e37;fill-opacity:1;stroke:none;stroke-width:2;marker:none;visibility:visible;display:inline;overflow:visible;enable-background:accumulate;font-family:Advert;-inkscape-font-specification:Advert" d="m 400.04975,622.97276 c -1.34215,0.0116 -2.67761,0.42736 -3.82462,1.1194 -0.88078,0.40802 -1.51594,1.1384 -2.09888,1.88899 -0.43599,0.39141 -0.42859,1.12186 -0.1166,1.58581 0.43234,0.40797 1.10174,0.41282 1.65578,0.27985 0.51512,0.0243 1.06931,-0.19746 1.63246,0.0233 0.80956,0.23758 1.57703,0.71631 1.93563,1.51585 0.33995,0.58239 0.52034,1.34723 0.0933,1.93563 -0.28672,0.46125 -0.71075,0.97309 -1.09608,1.25932 -1.52726,1.21014 -3.43512,1.73615 -5.22387,2.42537 -0.54867,0.2015 -1.81575,-0.0812 -1.77238,0.76959 0.43608,0.77545 1.36744,0.0715 2.02891,0.0933 1.21677,-0.18217 2.4679,-0.34083 3.61473,-0.81623 0.44077,-0.16237 0.8691,-0.35378 1.28265,-0.58302 l 1.56249,2.47201 0.51306,-0.32649 -1.98227,-2.19216 c 0.77043,-0.43953 1.47145,-0.99096 2.02891,-1.6791 l 2.26213,4.17443 0.51305,-0.27985 -2.68189,-4.03451 c 0.0715,-0.0935 0.14374,-0.18182 0.20989,-0.27985 0.59816,-0.80454 0.93497,-1.84176 0.86287,-2.84514 -0.11027,-1.21117 -0.9791,-2.16663 -1.91231,-2.86846 -0.61542,-0.43407 -1.35499,-0.63212 -2.09888,-0.6763 -0.45859,-0.11866 0.43424,-0.35473 0.58302,-0.46642 0.63169,-0.34801 1.35573,-0.38107 2.05224,-0.46642 0.90798,-0.0828 1.7787,0.24653 2.65857,0.41978 2.17109,0.53305 4.11867,1.68406 6.11006,2.65857 3.00566,1.65003 5.50718,4.03098 8.09233,6.24999 0.52088,0.27635 0.97169,1.4938 1.63246,1.00279 0.0777,-0.70844 -0.73442,-1.10791 -1.1194,-1.60914 -1.14979,-1.63879 -2.47673,-3.17276 -4.08115,-4.38431 -1.55586,-1.24764 -3.13401,-2.4809 -4.75745,-3.63805 -1.62428,-1.07045 -3.37806,-2.0264 -5.31715,-2.35541 -0.95691,-0.15068 -1.92285,-0.35855 -2.89178,-0.37313 -0.11901,0.004 -0.23081,-0.004 -0.34981,0 z m 5.06062,6.31995 5.08394,7.64923 0.51306,-0.32649 -5.597,-7.32274 z m -2.98507,1.1194 4.01118,6.52983 0.51306,-0.32649 -4.52424,-6.20334 z" id="path3704"/>
    <use x="0" y="0" xlink:href="#path3704" id="use3710" transform="translate(-20.019298,9.4571069)" width="322.19077" height="251.35944"/>
    <use x="0" y="0" xlink:href="#use3710" id="use3712" transform="translate(-106.64342,-15.801527)" width="322.19077" height="251.35944"/>
    <use x="0" y="0" xlink:href="#use3712" id="use3714" transform="translate(13.637059,12.98046)" width="322.19077" height="251.35944"/>
    <use x="0" y="0" xlink:href="#use3714" id="use3716" transform="translate(136.72415,-165.10943)" width="322.19077" height="251.35944"/>
    <use x="0" y="0" xlink:href="#use3716" id="use3718" transform="translate(15.808888,-10.152032)" width="322.19077" height="251.35944"/>
    <use x="0" y="0" xlink:href="#use3718" id="use3720" transform="translate(-78.791898,11.616754)" width="322.19077" height="251.35944"/>
    <use x="0" y="0" xlink:href="#use3720" id="use3722" transform="translate(-17.172593,16.162441)" width="322.19077" height="251.35944"/>
    <use x="0" y="0" xlink:href="#use3722" id="use3724" transform="translate(33.335034,-4.5456864)" width="322.19077" height="251.35944"/>
  </g>
  <metadata>
    <rdf:RDF>
      <cc:Work>
        <dc:format>image/svg+xml</dc:format>
        <dc:type rdf:resource="http://purl.org/dc/dcmitype/StillImage"/>
        <cc:license rdf:resource="http://creativecommons.org/licenses/publicdomain/"/>
        <dc:publisher>
          <cc:Agent rdf:about="http://openclipart.org/">
            <dc:title>Open Clip Art Library</dc:title>
          </cc:Agent>
        </dc:publisher>
        <dc:title>treasure map</dc:title>
        <dc:date>2011-02-18T17:44:13</dc:date>
        <dc:description/>
        <dc:source>http://openclipart.org/detail/120607/treasure-map-by-tzunghaor</dc:source>
        <dc:creator>
          <cc:Agent>
            <dc:title>tzunghaor</dc:title>
          </cc:Agent>
        </dc:creator>
        <dc:subject>
          <rdf:Bag>
            <rdf:li>clip art</rdf:li>
            <rdf:li>clipart</rdf:li>
            <rdf:li>map</rdf:li>
            <rdf:li>pirate</rdf:li>
            <rdf:li>sea</rdf:li>
            <rdf:li>treasure</rdf:li>
          </rdf:Bag>
        </dc:subject>
      </cc:Work>
      <cc:License rdf:about="http://creativecommons.org/licenses/publicdomain/">
        <cc:permits rdf:resource="http://creativecommons.org/ns#Reproduction"/>
        <cc:permits rdf:resource="http://creativecommons.org/ns#Distribution"/>
        <cc:permits rdf:resource="http://creativecommons.org/ns#DerivativeWorks"/>
      </cc:License>
    </rdf:RDF>
  </metadata>
</svg>
